HIERARCHY
ROOT hip
{
  OFFSET -294.262 83.0666 22.0481
  CHANNELS 6 Xposition Yposition Zposition Zrotation Xrotation Yrotation
  JOINT abdomen
  {
    OFFSET 0 20.6881 -0.73152
    CHANNELS 3 Zrotation Xrotation Yrotation
    JOINT chest
    {
      OFFSET 0 11.7043 -0.48768
      CHANNELS 3 Zrotation Xrotation Yrotation
      JOINT neck
      {
        OFFSET 0 22.1894 -2.19456
        CHANNELS 3 Zrotation Xrotation Yrotation
        JOINT head
        {
          OFFSET -0.24384 7.07133 1.2192
          CHANNELS 3 Zrotation Xrotation Yrotation
          JOINT leftEye
          {
            OFFSET 4.14528 8.04674 8.04672
            CHANNELS 3 Zrotation Xrotation Yrotation
            End Site
            {
              OFFSET 1 0 0
            }
          }
          JOINT rightEye
          {
            OFFSET -3.6576 8.04674 8.04672
            CHANNELS 3 Zrotation Xrotation Yrotation
            End Site
            {
              OFFSET 1 0 0
            }
          }
        }
      }
      JOINT rCollar
      {
        OFFSET -2.68224 19.2634 -4.8768
        CHANNELS 3 Zrotation Xrotation Yrotation
        JOINT rShldr
        {
          OFFSET -8.77824 -1.95073 1.46304
          CHANNELS 3 Zrotation Xrotation Yrotation
          JOINT rForeArm
          {
            OFFSET -28.1742 -1.7115 0.48768
            CHANNELS 3 Zrotation Xrotation Yrotation
            JOINT rHand
            {
              OFFSET -22.5879 0.773209 7.07136
              CHANNELS 3 Zrotation Xrotation Yrotation
              JOINT rThumb1
              {
                OFFSET -1.2192 -0.487915 3.41376
                CHANNELS 3 Zrotation Xrotation Yrotation
                JOINT rThumb2
                {
                  OFFSET -3.37035 -0.52449 3.41376
                  CHANNELS 3 Zrotation Xrotation Yrotation
                  End Site
                  {
                    OFFSET -1.78271 -1.18214 1.43049
                  }
                }
              }
              JOINT rIndex1
              {
                OFFSET -7.75947 0.938293 5.60832
                CHANNELS 3 Zrotation Xrotation Yrotation
                JOINT rIndex2
                {
                  OFFSET -2.54057 -0.884171 1.56538
                  CHANNELS 3 Zrotation Xrotation Yrotation
                  End Site
                  {
                    OFFSET -1.62519 -0.234802 1.16502
                  }
                }
              }
              JOINT rMid1
              {
                OFFSET -8.24714 1.18213 3.41376
                CHANNELS 3 Zrotation Xrotation Yrotation
                JOINT rMid2
                {
                  OFFSET -3.10165 -0.590103 1.0647
                  CHANNELS 3 Zrotation Xrotation Yrotation
                  End Site
                  {
                    OFFSET -2.48547 -0.328903 0.83742
                  }
                }
              }
              JOINT rRing1
              {
                OFFSET -8.82822 0.546677 1.51678
                CHANNELS 3 Zrotation Xrotation Yrotation
                JOINT rRing2
                {
                  OFFSET -2.60934 -0.819778 -0.0198488
                  CHANNELS 3 Zrotation Xrotation Yrotation
                  End Site
                  {
                    OFFSET -2.33842 -0.294052 0.168128
                  }
                }
              }
              JOINT rPinky1
              {
                OFFSET -8.27202 -0.0477905 -0.4584
                CHANNELS 3 Zrotation Xrotation Yrotation
                JOINT rPinky2
                {
                  OFFSET -1.82734 -0.647385 -0.700984
                  CHANNELS 3 Zrotation Xrotation Yrotation
                  End Site
                  {
                    OFFSET -1.69225 -0.51767 -0.607171
                  }
                }
              }
            }
          }
        }
      }
      JOINT lCollar
      {
        OFFSET 2.68224 19.2634 -4.8768
        CHANNELS 3 Zrotation Xrotation Yrotation
        JOINT lShldr
        {
          OFFSET 8.77824 -1.95073 1.46304
          CHANNELS 3 Zrotation Xrotation Yrotation
          JOINT lForeArm
          {
            OFFSET 28.1742 -1.7115 0.48768
            CHANNELS 3 Zrotation Xrotation Yrotation
            JOINT lHand
            {
              OFFSET 22.5879 0.773209 7.07136
              CHANNELS 3 Zrotation Xrotation Yrotation
              JOINT lThumb1
              {
                OFFSET 1.2192 -0.487915 3.41376
                CHANNELS 3 Zrotation Xrotation Yrotation
                JOINT lThumb2
                {
                  OFFSET 3.37035 -0.52449 3.41376
                  CHANNELS 3 Zrotation Xrotation Yrotation
                  End Site
                  {
                    OFFSET 1.78271 -1.18214 1.43049
                  }
                }
              }
              JOINT lIndex1
              {
                OFFSET 7.75947 0.938293 5.60832
                CHANNELS 3 Zrotation Xrotation Yrotation
                JOINT lIndex2
                {
                  OFFSET 2.54057 -0.884171 1.56538
                  CHANNELS 3 Zrotation Xrotation Yrotation
                  End Site
                  {
                    OFFSET 1.62519 -0.234802 1.16502
                  }
                }
              }
              JOINT lMid1
              {
                OFFSET 8.24714 1.18213 3.41376
                CHANNELS 3 Zrotation Xrotation Yrotation
                JOINT lMid2
                {
                  OFFSET 3.10165 -0.590103 1.0647
                  CHANNELS 3 Zrotation Xrotation Yrotation
                  End Site
                  {
                    OFFSET 2.48547 -0.328903 0.83742
                  }
                }
              }
              JOINT lRing1
              {
                OFFSET 8.82822 0.546677 1.51678
                CHANNELS 3 Zrotation Xrotation Yrotation
                JOINT lRing2
                {
                  OFFSET 2.60934 -0.819778 -0.0198488
                  CHANNELS 3 Zrotation Xrotation Yrotation
                  End Site
                  {
                    OFFSET 2.33842 -0.294052 0.168128
                  }
                }
              }
              JOINT lPinky1
              {
                OFFSET 8.27202 -0.0477905 -0.4584
                CHANNELS 3 Zrotation Xrotation Yrotation
                JOINT lPinky2
                {
                  OFFSET 1.82734 -0.647385 -0.700984
                  CHANNELS 3 Zrotation Xrotation Yrotation
                  End Site
                  {
                    OFFSET 1.69225 -0.51767 -0.607171
                  }
                }
              }
            }
          }
        }
      }
    }
  }
  JOINT rButtock
  {
    OFFSET -8.77824 4.35084 1.2192
    CHANNELS 3 Zrotation Xrotation Yrotation
    JOINT rThigh
    {
      OFFSET 0 -1.70687 -2.19456
      CHANNELS 3 Zrotation Xrotation Yrotation
      JOINT rShin
      {
        OFFSET 0 -36.8199 0.73152
        CHANNELS 3 Zrotation Xrotation Yrotation
        JOINT rFoot
        {
          OFFSET 0.73152 -45.1104 -5.12064
          CHANNELS 3 Zrotation Xrotation Yrotation
          End Site
          {
            OFFSET -1.1221 -3.69964 12.103
          }
        }
      }
    }
  }
  JOINT lButtock
  {
    OFFSET 8.77824 4.35084 1.2192
    CHANNELS 3 Zrotation Xrotation Yrotation
    JOINT lThigh
    {
      OFFSET 0 -1.70687 -2.19456
      CHANNELS 3 Zrotation Xrotation Yrotation
      JOINT lShin
      {
        OFFSET 0 -36.8199 0.73152
        CHANNELS 3 Zrotation Xrotation Yrotation
        JOINT lFoot
        {
          OFFSET -0.73152 -45.1104 -5.12064
          CHANNELS 3 Zrotation Xrotation Yrotation
          End Site
          {
            OFFSET 1.1221 -3.69964 12.103
          }
        }
      }
    }
  }
}
MOTION
Frames:	9
Frame Time:	0.00833333
211.993 84.7658 32.982 0.292816 -0.000579799 -0.00500381 -0.385196 -0.00168814 -0.0109958 -0.106234 -0.00256713 -0.0184049 -1.35347e-016 7.95139e-016 1.2424e-016 -3.91357e-016 9.54166e-015 3.80486e-016 -0 0 0 -0 0 0 4.83456e-017 -4.46489e-018 1.98785e-016 -2.41686e-017 -2.67117e-016 2.18663e-015 -2.95195e-014 3.97569e-015 4.77083e-014 -3.13968e-013 -2.35808e-014 2.25819e-013 -7.49244e-013 -3.97476e-014 6.17028e-013 -1.30562e-012 -6.67917e-014 1.06151e-012 -7.43455e-013 -3.73715e-014 6.10667e-013 7.73091 5.47488 0.417314 -7.50313e-013 -3.96575e-014 6.20208e-013 2.90554 0.965183 0.102902 -7.37684e-013 -3.95581e-014 6.17028e-013 10.2786 0.731801 0.0259123 -7.55382e-013 -3.81667e-014 6.23389e-013 2.22167 -0.733487 -0.20892 -1.47743e-016 -4.27076e-018 -9.93923e-017 -3.15726e-015 -2.67117e-016 5.96354e-016 -2.55438e-014 -1.0138e-014 -3.18055e-015 -3.20932e-013 -5.81445e-015 2.8943e-013 -7.50559e-013 -3.37538e-014 6.17028e-013 -1.28693e-012 -5.40694e-014 1.05833e-012 -7.56972e-013 -3.22031e-014 6.23389e-013 -7.73091 5.47488 -0.417314 -7.49667e-013 -3.37934e-014 6.10667e-013 -2.90554 0.965183 -0.102902 -7.57432e-013 -3.3197e-014 6.14642e-013 -10.2786 0.731801 -0.0259123 -7.43057e-013 -3.18055e-014 6.07486e-013 -2.22167 -0.733487 0.20892 -2.03217e-016 0 -3.88251e-019 0.221644 -2.58356 -0.0280808 -0.00748954 -0.87263 -0.0651397 -0.513105 3.45577 0.129346 2.03217e-016 0 3.88251e-019 -0.807781 -4.07084 0.0653915 0.00325579 1.82139 0.0244323 0.517717 2.24911 -0.105181 
208.199 83.3716 26.1199 -7.35885 -8.28061 26.1465 31.6269 24.6323 -3.41707 16.9068 -40.445 23.165 3.54901 14.0195 7.23964 -42.2893 -14.1491 7.02531 -0 0 0 -0 0 0 -5.59194e-014 7.66973e-013 5.54462e-015 -37.5365 -7.91616 20.2445 -6.11255 -3.29751 8.91603 0.163387 -8.98881 -1.20791 7.91651e-010 -1.7137e-010 5.35236e-010 1.35903e-009 -3.18571e-010 9.44911e-010 7.91656e-010 -1.71367e-010 5.35224e-010 7.73091 5.47488 0.417314 7.9165e-010 -1.7137e-010 5.35235e-010 2.90554 0.965183 0.102902 7.9166e-010 -1.7137e-010 5.35234e-010 10.2786 0.731801 0.0259123 7.91644e-010 -1.71368e-010 5.3524e-010 2.22167 -0.733487 -0.20892 -5.60971e-014 7.66974e-013 5.27245e-015 34.853 -4.49197 -20.1782 6.97191 -4.01073 -9.82164 -0.0805666 -6.30531 0.866912 4.44365e-010 6.79921e-010 -2.40285e-010 7.65148e-010 1.1814e-009 -4.08421e-010 4.44359e-010 6.79922e-010 -2.40282e-010 -7.73091 5.47488 -0.417314 4.44366e-010 6.79921e-010 -2.4029e-010 -2.90554 0.965183 -0.102902 4.44359e-010 6.79921e-010 -2.40287e-010 -10.2786 0.731801 -0.0259123 4.44373e-010 6.79922e-010 -2.40295e-010 -2.22167 -0.733487 0.20892 -2.03217e-016 0 -3.88251e-019 1.50986 -6.41648 0.975862 -0.0362226 3.78809 -0.0645341 -0.630715 1.39228 -2.67753 2.03217e-016 0 3.88251e-019 1.12927 -7.12023 -0.633069 -0.024412 5.15925 -0.114579 0.628429 0.218005 2.54075 
208.203 83.3653 26.1274 -8.3996 -11.2177 54.709 71.9473 50.5527 -11.3075 89.1548 -56.5164 86.7739 3.03214 28.2884 16.6909 -82.3431 -28.7081 16.3884 -0 0 0 -0 0 0 -1.17528e-013 1.64037e-012 1.04952e-014 -71.5312 -13.2936 43.2202 -11.4936 -6.53684 18.467 -0.0965421 -18.4986 -2.59075 1.6424e-009 -3.75822e-010 1.14299e-009 2.81883e-009 -6.96228e-010 2.01675e-009 1.6424e-009 -3.75818e-010 1.14297e-009 7.73091 5.47488 0.417314 1.6424e-009 -3.75823e-010 1.14299e-009 2.90554 0.965183 0.102902 1.6424e-009 -3.75823e-010 1.14299e-009 10.2786 0.731801 0.0259123 1.64239e-009 -3.75821e-010 1.14299e-009 2.22167 -0.733487 -0.20892 -1.17686e-013 1.64037e-012 1.02498e-014 68.5457 -7.63475 -42.4372 12.8953 -7.88545 -20.3956 0.0468188 -12.9847 1.82158 9.55321e-010 1.39946e-009 -5.23587e-010 1.64549e-009 2.43193e-009 -8.90268e-010 9.55316e-010 1.39946e-009 -5.23589e-010 -7.73091 5.47488 -0.417314 9.55322e-010 1.39946e-009 -5.23591e-010 -2.90554 0.965183 -0.102902 9.55316e-010 1.39946e-009 -5.2359e-010 -10.2786 0.731801 -0.0259123 9.5533e-010 1.39946e-009 -5.23597e-010 -2.22167 -0.733487 0.20892 -2.03217e-016 0 -3.88251e-019 3.021 -10.4564 2.06272 -0.066917 8.70657 -0.0657416 -0.973467 -0.777722 -5.64114 2.03217e-016 0 3.88251e-019 3.09525 -10.3369 -1.38453 -0.036102 8.68222 -0.264727 0.949501 -1.9166 5.34374 
208.205 83.3591 26.1374 -7.72255 -5.72784 78.951 120.793 71.571 -30.7268 139.549 -28.5943 115.698 -2.22764 38.9779 27.5439 -114.155 -39.5056 26.9032 -0 0 0 -0 0 0 -1.67855e-013 2.30093e-012 1.62363e-014 -99.0529 -12.2844 62.5577 -15.3522 -8.936 27.0581 -0.763308 -26.9154 -4.01471 2.37645e-009 -5.1403e-010 1.60447e-009 4.07971e-009 -9.55579e-010 2.83261e-009 2.37646e-009 -5.14025e-010 1.60445e-009 7.73091 5.47488 0.417314 2.37645e-009 -5.1403e-010 1.60446e-009 2.90554 0.965183 0.102902 2.37645e-009 -5.14031e-010 1.60447e-009 10.2786 0.731801 0.0259123 2.37644e-009 -5.14028e-010 1.60447e-009 2.22167 -0.733487 -0.20892 -1.67996e-013 2.30093e-012 1.60161e-014 96.9686 -7.04624 -61.1154 16.9345 -10.6192 -29.956 0.358233 -18.8981 2.73239 1.3346e-009 2.03983e-009 -7.22088e-010 2.29802e-009 3.5443e-009 -1.22738e-009 1.33459e-009 2.03983e-009 -7.22093e-010 -7.73091 5.47488 -0.417314 1.3346e-009 2.03983e-009 -7.2209e-010 -2.90554 0.965183 -0.102902 1.33459e-009 2.03983e-009 -7.22091e-010 -10.2786 0.731801 -0.0259123 1.33461e-009 2.03983e-009 -7.22099e-010 -2.22167 -0.733487 0.20892 -2.03217e-016 0 -3.88251e-019 4.5002 -14.0658 3.05709 -0.0938117 13.1095 -0.0645985 -1.4707 -2.70161 -8.29772 2.03217e-016 0 3.88251e-019 4.77482 -13.212 -2.06982 -0.0302397 11.8347 -0.399679 1.41169 -3.80766 7.84984 
208.207 83.3433 26.1481 -8.89831 2.52527 93.7972 -178.029 83.0898 -74.4104 163.68 -4.31369 100.838 -8.0544 44.2588 35.3326 -137.178 -44.5908 33.2961 -0 0 0 -0 0 0 -1.89978e-013 2.42937e-012 2.39536e-014 -119.094 -8.99406 71.981 -17.5167 -10.1764 32.9449 -1.51408 -32.6488 -5.16639 2.81877e-009 -4.86624e-010 1.70027e-009 4.84327e-009 -9.19164e-010 3.00854e-009 2.81878e-009 -4.86619e-010 1.70024e-009 7.73091 5.47488 0.417314 2.81877e-009 -4.86625e-010 1.70026e-009 2.90554 0.965183 0.102902 2.81877e-009 -4.86625e-010 1.70026e-009 10.2786 0.731801 0.0259123 2.81876e-009 -4.86622e-010 1.70027e-009 2.22167 -0.733487 -0.20892 -1.9011e-013 2.42937e-012 2.37548e-014 117.271 -5.0141 -70.5821 19.0829 -11.9003 -36.4974 0.690447 -22.914 3.40579 1.38467e-009 2.48229e-009 -7.08586e-010 2.381e-009 4.31123e-009 -1.20265e-009 1.38466e-009 2.48229e-009 -7.08593e-010 -7.73091 5.47488 -0.417314 1.38467e-009 2.48229e-009 -7.08586e-010 -2.90554 0.965183 -0.102902 1.38466e-009 2.48229e-009 -7.08589e-010 -10.2786 0.731801 -0.0259123 1.38468e-009 2.48229e-009 -7.08596e-010 -2.22167 -0.733487 0.20892 -2.03217e-016 0 -3.88251e-019 5.60252 -16.6145 3.75473 -0.11232 16.2236 -0.0564431 -1.93103 -4.04771 -10.1717 2.03217e-016 0 3.88251e-019 5.90115 -15.2391 -2.55564 -0.0162678 14.0613 -0.490134 1.83122 -5.1284 9.59194 
208.211 83.3249 26.1586 -10.0053 6.55606 99.104 26.0563 85.9527 80.1574 178.565 3.41509 61.7966 -8.25106 44.5242 33.6916 -155.066 -43.7753 28.444 -0 0 0 -0 0 0 -1.68888e-013 1.54283e-012 4.28959e-014 -128.829 -7.79657 68.1015 -18.1065 -10.3989 34.8333 -1.85123 -34.6225 -5.6144 2.91598e-009 -1.42051e-010 1.15797e-009 5.02275e-009 -3.21747e-010 2.07164e-009 2.91598e-009 -1.42046e-010 1.15795e-009 7.73091 5.47488 0.417314 2.91598e-009 -1.42052e-010 1.15797e-009 2.90554 0.965183 0.102902 2.91598e-009 -1.42051e-010 1.15797e-009 10.2786 0.731801 0.0259123 2.91597e-009 -1.42049e-010 1.15797e-009 2.22167 -0.733487 -0.20892 -1.69025e-013 1.54283e-012 4.27154e-014 126.373 -3.74816 -66.6338 19.6188 -12.0466 -38.5252 0.831433 -24.2543 3.6449 8.46372e-010 2.70769e-009 -3.22207e-010 1.44494e-009 4.69737e-009 -5.41465e-010 8.46369e-010 2.70769e-009 -3.22211e-010 -7.73091 5.47488 -0.417314 8.46374e-010 2.70769e-009 -3.22204e-010 -2.90554 0.965183 -0.102902 8.4637e-010 2.70769e-009 -3.22207e-010 -10.2786 0.731801 -0.0259123 8.46381e-010 2.70769e-009 -3.22214e-010 -2.22167 -0.733487 0.20892 -2.03217e-016 0 -3.88251e-019 6.03957 -17.6909 3.99165 -0.119343 17.5299 -0.0357138 -2.15183 -4.61092 -10.9318 2.03217e-016 0 3.88251e-019 6.33052 -16.0882 -2.7364 -0.00709627 14.9969 -0.511601 2.01533 -5.68144 10.2451 
208.221 83.301 26.155 -9.90551 6.07631 98.5265 25.9751 67.9879 67.6563 -176.669 3.18478 11.7659 -4.59245 40.914 25.3475 -167.241 -37.444 16.8843 -0 0 0 -0 0 0 -1.17108e-013 -5.58416e-014 6.94535e-014 -129.708 -4.06716 54.741 -17.7127 -10.0453 33.8454 -1.75284 -33.9251 -5.46255 2.76366e-009 4.25009e-010 1.659e-010 4.77969e-009 6.69389e-010 3.50195e-010 2.76366e-009 4.25013e-010 1.6589e-010 7.73091 5.47488 0.417314 2.76366e-009 4.25007e-010 1.65903e-010 2.90554 0.965183 0.102902 2.76366e-009 4.25009e-010 1.659e-010 10.2786 0.731801 0.0259123 2.76365e-009 4.25011e-010 1.65905e-010 2.22167 -0.733487 -0.20892 -1.1726e-013 -5.5847e-014 6.92889e-014 126.122 0.0934564 -53.3207 19.1693 -11.5948 -37.3069 0.784767 -23.6886 3.54698 -1.06113e-010 2.7752e-009 3.26891e-010 -2.08438e-010 4.80662e-009 5.68138e-010 -1.06118e-010 2.7752e-009 3.2689e-010 -7.73091 5.47488 -0.417314 -1.06111e-010 2.7752e-009 3.26897e-010 -2.90554 0.965183 -0.102902 -1.06116e-010 2.7752e-009 3.26893e-010 -10.2786 0.731801 -0.0259123 -1.06107e-010 2.7752e-009 3.26886e-010 -2.22167 -0.733487 0.20892 -2.03217e-016 0 -3.88251e-019 5.96824 -17.7185 3.88671 -0.117716 17.545 -0.0061437 -2.15665 -4.62495 -10.8908 2.03217e-016 0 3.88251e-019 6.28009 -16.0969 -2.69326 -0.00506654 15.0101 -0.482668 1.99019 -5.69498 10.1146 
208.226 83.2801 26.1474 -9.32316 3.79797 95.5831 15.2098 49.0746 65.9548 -174.587 3.45909 -35.7825 -1.9478 35.0991 16.8349 -171.559 -28.1966 6.64984 -0 0 0 -0 0 0 -5.90192e-014 -1.50732e-012 8.55236e-014 -123.378 5.32013 40.3214 -16.9319 -9.47005 31.8169 -1.50248 -32.2258 -5.09525 2.41023e-009 9.44568e-010 -8.04276e-010 4.18815e-009 1.58293e-009 -1.338e-009 2.41024e-009 9.4457e-010 -8.04275e-010 7.73091 5.47488 0.417314 2.41023e-009 9.44566e-010 -8.04264e-010 2.90554 0.965183 0.102902 2.41024e-009 9.44568e-010 -8.04273e-010 10.2786 0.731801 0.0259123 2.41023e-009 9.4457e-010 -8.04267e-010 2.22167 -0.733487 -0.20892 -5.91847e-014 -1.50733e-012 8.53702e-014 119.221 7.9559 -38.5857 18.3156 -10.8963 -34.9219 0.673144 -22.4111 3.32652 -1.02031e-009 2.6835e-009 9.59361e-010 -1.79408e-009 4.64061e-009 1.64932e-009 -1.02031e-009 2.6835e-009 9.59364e-010 -7.73091 5.47488 -0.417314 -1.0203e-009 2.6835e-009 9.59369e-010 -2.90554 0.965183 -0.102902 -1.02031e-009 2.6835e-009 9.59365e-010 -10.2786 0.731801 -0.0259123 -1.0203e-009 2.6835e-009 9.59358e-010 -2.22167 -0.733487 0.20892 -2.03217e-016 0 -3.88251e-019 5.69283 -17.3227 3.64712 -0.112199 17.0492 0.0232057 -2.07435 -4.42748 -10.5313 2.03217e-016 0 3.88251e-019 6.0338 -15.7617 -2.56719 -0.00596365 14.6462 -0.437303 1.88169 -5.49105 9.67107 
208.226 83.264 26.1515 -9.03702 2.48339 93.7606 6.9707 36.9579 68.1606 -173.642 1.62856 -68.5986 -1.43882 30.8056 12.003 -172.825 -21.5364 0.955015 -0 0 0 -0 0 0 -1.90007e-014 -1.9523e-012 7.30037e-014 -116.58 14.1088 31.6332 -16.4222 -9.08555 30.5692 -1.3636 -31.1959 -4.88183 1.90412e-009 1.14664e-009 -1.28089e-009 3.32221e-009 1.94754e-009 -2.17517e-009 1.90412e-009 1.14664e-009 -1.28088e-009 7.73091 5.47488 0.417314 1.90411e-009 1.14664e-009 -1.28087e-009 2.90554 0.965183 0.102902 1.90412e-009 1.14664e-009 -1.28088e-009 10.2786 0.731801 0.0259123 1.90411e-009 1.14664e-009 -1.28088e-009 2.22167 -0.733487 -0.20892 -1.91671e-014 -1.95231e-012 7.28546e-014 112.543 14.8362 -29.1624 17.734 -10.4036 -33.4262 0.609637 -21.6166 3.19252 -1.44372e-009 2.43131e-009 1.29585e-009 -2.52691e-009 4.20096e-009 2.22524e-009 -1.44372e-009 2.4313e-009 1.29586e-009 -7.73091 5.47488 -0.417314 -1.44371e-009 2.4313e-009 1.29586e-009 -2.90554 0.965183 -0.102902 -1.44372e-009 2.4313e-009 1.29586e-009 -10.2786 0.731801 -0.0259123 -1.44372e-009 2.4313e-009 1.29585e-009 -2.22167 -0.733487 0.20892 -2.03217e-016 0 -3.88251e-019 5.51795 -17.129 3.4807 -0.10914 16.8228 0.0437372 -2.03875 -4.35506 -10.3371 2.03217e-016 0 3.88251e-019 5.87468 -15.5797 -2.49964 -0.00612484 14.4505 -0.409384 1.81852 -5.39126 9.38612 
